<svg id="Layer_1" data-name="Layer 1" xmlns="http://www.w3.org/2000/svg" viewBox="0 0 118.93 103.75"><defs><style>.cls-1{fill:#aeafb2;}</style></defs><path class="cls-1" d="M113.19,71.8a.75.75,0,0,0-.46-.69l-19.42-8,19.53-8,.31-.12.08-7L92.76,39.61l19.36-8.11,1.11-.44V27.81L59.52,5.7,8,26.87A7.78,7.78,0,0,0,6,28a1.34,1.34,0,0,0-.22,1.29,3.4,3.4,0,0,0,2.4,2.22l18.73,7.8L6.05,47.92l-.39.19v7l19.81,8.17L6.11,71.19l-.42.18,0,3.52L8.33,76c.27,1.2.94,2,1.77,2a1.52,1.52,0,0,0,1.26-.76l2.28,1h0c.27,1.21.95,2,1.78,2a1.54,1.54,0,0,0,1.26-.76h0L19,80.4c.27,1.21.95,2,1.78,2A1.5,1.5,0,0,0,22,81.66h0l2.28.94c.27,1.21.95,2,1.78,2a1.5,1.5,0,0,0,1.26-.76l2.27.94c.28,1.21,1,2,1.79,2a1.52,1.52,0,0,0,1.26-.77l2.28.94h0c.27,1.21.95,2,1.78,2A1.53,1.53,0,0,0,38,88.27h0l2.28.94c.27,1.21.94,2,1.77,2a1.5,1.5,0,0,0,1.26-.76h0l2.29,1c.26,1.22.94,2,1.77,2a1.54,1.54,0,0,0,1.27-.77l2.28.94h0c.27,1.21.94,2,1.77,2a1.56,1.56,0,0,0,1.27-.76h0l2.27.94h0c.27,1.21.94,2,1.78,2a1.53,1.53,0,0,0,1.26-.76h0l.79.33v-.09l.06.15,53.18-21.71S113.19,71.88,113.19,71.8Zm-1-17.48-11.06,4.54h0L92,62.58l-1.65.68L60.05,75.69V70.85l24.38-10,1.65-.68,9.07-3.73,17-7ZM112,28.62v1.59L92,38.59l-.84.35-1.62.68L72,46.94l-9,3.75-1.63.69-1.13.47a1.43,1.43,0,0,1-.27-.57,2.47,2.47,0,0,1-.09-.52,2,2,0,0,1,.1-.9l.49-.21,9-3.75L87,38.58l1.63-.68,1-.41,21.75-9.12v0ZM8.59,30.38A2.29,2.29,0,0,1,6.9,28.9,6.64,6.64,0,0,1,8.49,28l51-21,50.2,20.64L88.05,36.77,87,37.23l-1.63.68L67.87,45.23l-8.44,3.54a1.23,1.23,0,0,0-.57.73,3.63,3.63,0,0,0-.15,1.27s.11.44.12.49l-.51-.18-1.64-.68-7.76-3.24-18.75-7.8-1.64-.68-1.08-.45Zm20,9.65,18.79,7.83L55,51.07l1.63.68L60,53.14l.23.1,2.84-1.19,1.63-.68,9-3.76,17.47-7.32,20,8.22-17.6,7.24-9.07,3.73-1.65.67L63.52,68.07l0,0L40.3,58.48l-1.65-.67-7.2-3L12,46.85ZM10.33,47.52l19.55,8L37,58.48h0l1.64.68,23.28,9.57-2.42,1L36.24,60.15l-1.64-.67-7.06-2.91L7.92,48.51ZM6.9,49.43,26,57.27l7,2.88,1.65.68L58.8,70.77v4.86l-30-12.39-1.64-.68-6.79-2.8L6.9,54.23ZM27.1,63.91l32,13.19.33.12L91.66,63.8l19.45,8L59.62,93v0l0-.23c-.34-.88-.93-1.39-1.59-1.39a1.48,1.48,0,0,0-1.13.59L54.3,90.86v-.11l0-.23c-.35-.89-.93-1.4-1.6-1.4a1.46,1.46,0,0,0-1.13.6l-2.55-1v-.14l0-.22c-.35-.89-.93-1.4-1.6-1.4a1.48,1.48,0,0,0-1.14.61l-2.54-1v-.15l0-.23c-.35-.88-.93-1.39-1.6-1.39a1.49,1.49,0,0,0-1.15.62l-2.53-1v-.16l0-.23c-.35-.89-.93-1.39-1.6-1.39a1.49,1.49,0,0,0-1.16.63l-2.52-1v-.19l0-.22c-.35-.89-.93-1.4-1.6-1.4a1.49,1.49,0,0,0-1.17.65l-2.51-1v-.2l0-.23c-.35-.88-.93-1.39-1.6-1.39a1.49,1.49,0,0,0-1.18.66l-2.5-1v-.21l0-.23c-.35-.89-.93-1.39-1.6-1.39a1.52,1.52,0,0,0-1.19.67l-2.49-1v-.24l0-.22c-.35-.89-.93-1.4-1.6-1.4a1.52,1.52,0,0,0-1.2.69l-2.48-1v-.25l-.05-.23c-.34-.88-.92-1.39-1.59-1.39a1.53,1.53,0,0,0-1.21.7l-1-.4ZM52,92.72h0c0-.11,0-.22,0-.34a4,4,0,0,1,.13-1.06L56.29,93a4.86,4.86,0,0,0-.21,1.37h0Zm-5.32-2.2h0c0-.11,0-.22,0-.34a4,4,0,0,1,.13-1.05L51,90.84a4.73,4.73,0,0,0-.21,1.36h0Zm-5.31-2.2h0a2,2,0,0,1,0-.35,4.2,4.2,0,0,1,.12-1l4.16,1.71a5,5,0,0,0-.2,1.34h0Zm-5.33-2.2h0a2,2,0,0,1,0-.35,4.26,4.26,0,0,1,.12-1l4.17,1.72a5.37,5.37,0,0,0-.21,1.33h0Zm-5.32-2.2a2,2,0,0,1,0-.35,4.09,4.09,0,0,1,.12-1L35,84.27a5,5,0,0,0-.2,1.33Zm-5.32-2.21a1.83,1.83,0,0,1,0-.34,4.1,4.1,0,0,1,.11-1l4.16,1.71a5.22,5.22,0,0,0-.19,1.3h0Zm-5.32-2.2h0a2,2,0,0,1,0-.35,3.93,3.93,0,0,1,.11-1l4.16,1.71a4.72,4.72,0,0,0-.19,1.29h0Zm-5.32-2.2h0a2,2,0,0,1,0-.35,3.84,3.84,0,0,1,.11-1L19,77.71a5,5,0,0,0-.2,1.28Zm-5.32-2.2h0a2,2,0,0,1,0-.35,4.4,4.4,0,0,1,.1-1l4.16,1.71a5.46,5.46,0,0,0-.19,1.27ZM57.33,94.92c0-.11,0-.22,0-.34a3.65,3.65,0,0,1,.14-1.07l1.34.55v1.47l-1.47-.6ZM6.9,72.73l1.47.6a5.37,5.37,0,0,0-.19,1.25L6.9,74.06ZM60.05,96.14v-2h0l51.88-21.33h0l.08,2.11Z"/><polygon class="cls-1" points="50.62 44.6 44.92 42.22 44.44 43.37 50.14 45.76 50.62 44.6"/><polygon class="cls-1" points="17.06 32.23 22.4 34.32 22.86 33.16 17.51 31.07 17.06 32.23"/></svg>