<svg id="Layer_1" data-name="Layer 1" xmlns="http://www.w3.org/2000/svg" viewBox="0 0 118.93 103.75"><defs><style>.cls-1{fill:none;stroke:#aeafb2;stroke-miterlimit:10;stroke-width:1.25px;}</style></defs><circle class="cls-1" cx="57.66" cy="43.69" r="8"/><path class="cls-1" d="M49.33,11.35A10,10,0,0,0,32.86,22.06"/><circle class="cls-1" cx="57.66" cy="81" r="8"/><circle class="cls-1" cx="57.57" cy="81.01" r="16.29"/><circle class="cls-1" cx="57.57" cy="43.67" r="16.29"/><line class="cls-1" x1="42.18" y1="49.04" x2="32.41" y2="21.1"/><line class="cls-1" x1="69.68" y1="32.74" x2="48.79" y2="10.77"/><path class="cls-1" d="M39.79,41.86s-4.93-3.66-10.18-1c-5.89,3-4.53,8-4.53,8l.47,1.35"/><line class="cls-1" x1="43.5" y1="89.21" x2="32.77" y2="66.52"/><path class="cls-1" d="M42.14,48.86H33.91c-3.48,0-14.67.41-18.43,11.07l7.43,18.5C23.4,75.76,25,64.15,45.58,64.15h61.21L93.09,48.86H73.2"/><path class="cls-1" d="M92.82,34.12c0-3.43-6.22-11.58-6.22-11.58s-6.22,8.15-6.22,11.58a6.22,6.22,0,1,0,12.44,0Z"/></svg>